# xmcd
#
# Track frame offsets:
#	150
#	14925
#	30388
#	61230
#	86574
#	103657
#	130349
#	148861
#	166342
#	181952
#	198184
#
# Disc length: 2993 seconds
#
# Revision: 1
# Processed by: cddbd v1.5PL3 Copyright (c) Steve Scherf et al.
# Submitted via: audiograbber 1.80.04
#
DISCID=960baf0b
DTITLE=Scott Copeland, Andy Pate, and Carey Wolff - With Friends Like These
DYEAR=1900
DGENRE=Country Blues
TTITLE0=Dealin' With The Blues
TTITLE1=Carey Michelle
TTITLE2=Our Song
TTITLE3=Broke
TTITLE4=Screamin' For Attention
TTITLE5=Motel Room
TTITLE6=Whiskey And Women
TTITLE7=Young At Heart
TTITLE8=Miserable
TTITLE9=Brake Lights
TTITLE10=Peein' On The Side Of The Road
EXTD=
EXTT0=
EXTT1=
EXTT2=
EXTT3=
EXTT4=
EXTT5=
EXTT6=
EXTT7=
EXTT8=
EXTT9=
EXTT10=
PLAYORDER=
